<svg width="32" height="32" viewBox="0 0 32 32" fill="none" xmlns="http://www.w3.org/2000/svg">
<path d="M24 17.3333H17.3333V24C17.3333 24.7333 16.7333 25.3333 16 25.3333C15.2666 25.3333 14.6666 24.7333 14.6666 24V17.3333H7.99996C7.26663 17.3333 6.66663 16.7333 6.66663 16C6.66663 15.2666 7.26663 14.6666 7.99996 14.6666H14.6666V7.99996C14.6666 7.26663 15.2666 6.66663 16 6.66663C16.7333 6.66663 17.3333 7.26663 17.3333 7.99996V14.6666H24C24.7333 14.6666 25.3333 15.2666 25.3333 16C25.3333 16.7333 24.7333 17.3333 24 17.3333Z" fill="white"/>
</svg>
