<svg width="54" height="53" viewBox="0 0 54 53" fill="none" xmlns="http://www.w3.org/2000/svg">
<rect x="0.742065" width="52.5159" height="52.5159" rx="26.258" fill="#292B30"/>
<path d="M32.8325 13.6192C31.1479 13.7336 29.3425 14.4965 28.141 15.6026C27.9948 15.7361 27.6579 15.9395 27.3972 16.0539L26.9204 16.2637L26.4119 16.0412C25.808 15.7806 24.7336 15.5009 23.7292 15.342C22.5976 15.164 19.3428 15.183 18.0841 15.3737C16.3931 15.6407 14.6004 16.1048 14.3334 16.3527C14.2635 16.4163 14.2063 16.5371 14.2063 16.6197C14.2063 16.7532 14.1618 16.7723 13.5578 16.874C12.7823 17.0012 12.5344 17.1092 12.3246 17.4144L12.172 17.6432V27.2424C12.172 36.4284 12.1784 36.8544 12.2928 37.1023C12.5089 37.5791 13.0938 37.9541 13.6214 37.9541C13.7295 37.9541 14.2381 37.8588 14.7593 37.738C16.3422 37.3693 17.5692 37.1786 19.0694 37.0578C20.2264 36.9688 22.2416 37.0133 23.3605 37.1595C24.1488 37.2612 25.7635 37.5918 26.5263 37.8079C26.9014 37.9096 26.9395 37.9096 27.3209 37.8079C27.8867 37.649 29.0374 37.382 29.565 37.293C29.9719 37.2231 30.0354 37.2231 30.2325 37.3311C30.3914 37.4138 30.5885 37.4456 31.0017 37.4456H31.5548L31.6883 37.7443C31.8663 38.1448 32.3303 38.6153 32.7245 38.7805C33.1631 38.9713 33.9005 38.9713 34.3392 38.7805C34.7333 38.6153 35.1974 38.1448 35.3754 37.7507L35.5025 37.4583L36.1319 37.4328C36.7231 37.4138 36.7803 37.4011 37.0092 37.2167C37.4414 36.8734 37.6576 36.2123 37.4796 35.7609C37.4414 35.6656 37.4796 35.5766 37.6385 35.3922C38.0072 34.9536 38.0835 34.178 37.8038 33.6377L37.6639 33.377L37.8038 33.1164C37.9754 32.7795 38.0199 32.3345 37.9182 31.9085C37.8546 31.6352 37.7656 31.5017 37.4923 31.2283L37.1554 30.8914V30.1476C37.1554 29.2195 37.1935 29.1432 37.9945 28.6028C39.8063 27.3696 41.1031 25.4116 41.5418 23.2756C41.7007 22.5 41.7134 21.1269 41.5735 20.3196C41.2748 18.6222 40.4865 17.1347 39.2341 15.9141C38.5412 15.2402 38.0072 14.8525 37.2444 14.4647C35.9094 13.7781 34.479 13.5111 32.8325 13.6192ZM34.8541 14.7889C37.4351 15.2466 39.6473 17.2999 40.3721 19.9063C40.6009 20.7328 40.6581 22.1504 40.4928 22.9832C40.1114 24.9221 38.9354 26.6449 37.1999 27.8082C36.2781 28.4248 36.0747 28.8253 36.0747 30.0459V30.8342H35.5597H35.0448L35.0702 29.3212C35.0893 27.6493 35.0702 27.7446 35.5724 27.1153C36.0492 26.5304 36.0747 26.4033 36.0747 24.6869V23.2057H36.3289C36.5006 23.2057 36.6277 23.1612 36.7104 23.0785C36.793 22.9959 36.8375 22.8688 36.8375 22.6971C36.8375 22.5255 36.793 22.3983 36.7104 22.3157C36.6277 22.233 36.5006 22.1885 36.3289 22.1885H36.0747V21.9343C36.0747 21.7626 36.0302 21.6355 35.9475 21.5528C35.8649 21.4702 35.7377 21.4257 35.5661 21.4257C35.3945 21.4257 35.2673 21.4702 35.1847 21.5528C35.102 21.6355 35.0575 21.7626 35.0575 21.9343V22.1885H33.5318H32.0061V21.9343C32.0061 21.7626 31.9616 21.6355 31.879 21.5528C31.7963 21.4702 31.6692 21.4257 31.4976 21.4257C31.3259 21.4257 31.1988 21.4702 31.1161 21.5528C31.0335 21.6355 30.989 21.7626 30.989 21.9343V22.1885H30.7347C30.5631 22.1885 30.4359 22.233 30.3533 22.3157C30.2706 22.3983 30.2261 22.5255 30.2261 22.6971C30.2261 22.8688 30.2706 22.9959 30.3533 23.0785C30.4359 23.1612 30.5631 23.2057 30.7347 23.2057H30.989V24.6869C30.989 26.4033 31.0144 26.5304 31.4912 27.1153C31.9934 27.7446 31.9743 27.6493 31.9934 29.3212L32.0188 30.8342H31.5039H30.989V30.0523C30.989 29.6263 30.9572 29.1686 30.9254 29.0415C30.7983 28.5901 30.4804 28.2151 29.8447 27.7828C28.0774 26.5813 26.9268 24.8903 26.5645 22.9705C26.4119 22.1313 26.4691 20.7073 26.6916 19.9063C27.34 17.5924 29.0882 15.7488 31.3386 15.0177C32.502 14.6363 33.589 14.5664 34.8541 14.7889ZM22.4451 16.2764C23.8945 16.3909 25.1659 16.6706 26.075 17.0774C26.3992 17.2173 26.4119 17.2364 26.4119 17.4716C26.4119 17.6242 26.3292 17.8784 26.1894 18.1581C25.6617 19.1944 25.3947 20.4022 25.3947 21.7435C25.3947 23.0404 25.6363 24.1211 26.164 25.2082L26.4119 25.7104V30.7388V35.7736L25.7952 35.4685C24.6383 34.8964 23.1126 34.4895 21.5233 34.3242C19.9785 34.1653 17.4929 34.3369 15.9036 34.7057C15.5985 34.7819 15.3188 34.8392 15.287 34.8392C15.2488 34.8392 15.2234 31.6034 15.2234 25.9837V17.1219L15.9418 16.9249C17.9442 16.3654 20.4299 16.1175 22.4451 16.2764ZM14.2063 26.861C14.2063 35.7736 14.2063 35.8563 14.3334 35.9834C14.5114 36.1614 14.7085 36.1424 15.6811 35.8881C17.1242 35.513 17.9442 35.4049 19.578 35.3668C21.1864 35.3286 22.0318 35.4049 23.2015 35.691C23.8055 35.8372 24.9815 36.2314 24.937 36.2695C24.9243 36.2822 24.5493 36.2377 24.0979 36.1678C21.0592 35.7228 17.9442 35.8881 14.6004 36.6573C13.6214 36.8861 13.4243 36.8861 13.3226 36.6954C13.2908 36.6319 13.2591 32.735 13.2463 27.306L13.2273 18.0246L13.6405 17.9547C13.863 17.9166 14.0855 17.8784 14.13 17.8721C14.1872 17.8657 14.2063 19.7029 14.2063 26.861ZM35.0448 24.5915C35.0257 26.1236 35.0448 26.0346 34.5426 26.6385C34.0658 27.217 34.0722 27.1789 34.0531 29.0987L34.034 30.8342H33.5318H33.0296L33.0105 29.0987C32.9915 27.1789 32.9978 27.217 32.521 26.6385C32.0188 26.0346 32.0379 26.1236 32.0188 24.5915L31.9934 23.2057H33.5318H35.0702L35.0448 24.5915ZM28.6686 28.2977C28.8784 28.4566 29.1518 28.6473 29.2726 28.7173C29.832 29.0606 29.9655 29.3784 29.9719 30.3701C29.9719 30.8914 29.9591 30.955 29.8447 30.9931C29.7811 31.0122 29.6095 31.1584 29.4696 31.3173C29.0501 31.7941 28.9674 32.5442 29.2599 33.1164L29.3997 33.377L29.2535 33.6504C29.1391 33.8665 29.1136 34.0191 29.1136 34.4704V35.0172L28.8911 35.0871C28.7704 35.1252 28.3889 35.2905 28.052 35.4621L27.429 35.7736V31.4826V27.1979L27.8613 27.5984C28.0965 27.8273 28.4589 28.1388 28.6686 28.2977ZM36.615 31.9403C36.8502 32.042 36.9456 32.2455 36.8757 32.5252C36.793 32.8557 36.6595 32.8685 33.5318 32.8685C30.4041 32.8685 30.2706 32.8557 30.188 32.5252C30.1244 32.2518 30.2134 32.042 30.4359 31.9467C30.7411 31.8132 36.2972 31.8068 36.615 31.9403ZM36.615 33.9746C36.8502 34.0763 36.9456 34.2797 36.8757 34.5594C36.793 34.89 36.6595 34.9027 33.5318 34.9027C30.4041 34.9027 30.2706 34.89 30.188 34.5594C30.1244 34.2861 30.2134 34.0763 30.4359 33.9809C30.7411 33.8474 36.2972 33.8411 36.615 33.9746ZM36.2908 35.9834C36.3925 36.0216 36.4561 36.0915 36.4561 36.1741C36.4561 36.2568 36.3925 36.3267 36.2908 36.3649C36.0747 36.4475 30.989 36.4475 30.7728 36.3649C30.5631 36.2886 30.5503 36.0661 30.7538 35.9834C30.9445 35.9071 36.0874 35.9008 36.2908 35.9834ZM29.5269 36.1106C29.5269 36.1869 29.4569 36.2186 29.1136 36.2631L28.8594 36.2949L29.1136 36.1741C29.4061 36.0406 29.5269 36.0216 29.5269 36.1106ZM34.1485 37.6045C34.0531 37.6871 33.8751 37.7825 33.7543 37.8206C33.4746 37.8969 33.1504 37.8143 32.9152 37.6045L32.7372 37.4519H33.5318H34.3265L34.1485 37.6045Z" fill="white"/>
<path d="M19.9276 18.2853C18.5609 18.4443 17.5692 18.6795 17.3403 18.8956C17.1432 19.08 17.1432 19.4487 17.3403 19.633C17.531 19.811 17.7217 19.811 18.4655 19.6203C20.1374 19.2007 22.0255 19.258 23.4431 19.7792C23.7483 19.8937 24.0216 19.9572 24.1043 19.9318C24.4857 19.8365 24.6319 19.3787 24.3776 19.0609C24.225 18.8638 23.3223 18.5523 22.4959 18.4061C21.9428 18.3044 20.3663 18.2345 19.9276 18.2853Z" fill="white"/>
<path d="M19.3554 21.0061C18.6053 21.1142 17.6962 21.3303 17.4547 21.4575C17.0033 21.6863 17.1622 22.4428 17.6645 22.4428C17.7598 22.4428 18.1158 22.3729 18.4527 22.2902C20.0865 21.877 21.9301 21.9088 23.2651 22.3856C23.5575 22.4873 23.8944 22.5699 24.0088 22.5699C24.4856 22.5699 24.689 21.9724 24.3203 21.6672C24.0978 21.4765 23.2968 21.2095 22.5594 21.0697C21.7839 20.9298 20.1183 20.898 19.3554 21.0061Z" fill="white"/>
<path d="M19.6734 23.6316C18.6753 23.727 17.4738 24.0321 17.3085 24.2356C17.1369 24.4263 17.1623 24.7696 17.3594 24.9603C17.5501 25.1573 17.6391 25.151 18.688 24.8967C19.2474 24.7569 19.5907 24.7187 20.4362 24.6869C21.6504 24.6488 22.4133 24.7441 23.3033 25.0493C23.6084 25.1573 23.939 25.24 24.0407 25.24C24.4412 25.24 24.6637 24.6742 24.3776 24.3691C24.1488 24.1211 23.0172 23.7779 22.0255 23.6571C21.5296 23.5935 20.1946 23.5808 19.6734 23.6316Z" fill="white"/>
<path d="M19.3237 26.3271C18.5037 26.4352 17.5056 26.7085 17.3403 26.8675C17.1369 27.0709 17.1433 27.4205 17.353 27.624C17.531 27.8083 17.69 27.821 18.1223 27.6875C19.667 27.2108 21.9174 27.2235 23.3414 27.7257C23.6275 27.8274 23.9326 27.91 24.028 27.91C24.3649 27.91 24.6001 27.4778 24.4666 27.1154C24.3713 26.8675 23.3669 26.5178 22.2798 26.3525C21.6187 26.2508 20.0421 26.2381 19.3237 26.3271Z" fill="white"/>
<path d="M19.6415 28.9716C18.5418 29.0988 17.4738 29.3785 17.3085 29.5756C17.1432 29.7663 17.1623 30.1096 17.353 30.2939C17.5437 30.491 17.6772 30.491 18.3955 30.3003C20.0293 29.8616 22.1462 29.9252 23.4749 30.4465C23.9453 30.6308 24.2059 30.6245 24.3712 30.4147C24.5365 30.1986 24.5429 29.8553 24.3839 29.6963C24.1424 29.4548 22.9981 29.1115 22.0254 28.9971C21.5296 28.9335 20.0802 28.9144 19.6415 28.9716Z" fill="white"/>
<path d="M20.023 31.4509C18.8151 31.5526 17.5755 31.8323 17.3403 32.0548C17.175 32.2073 17.1432 32.5761 17.2831 32.7541C17.4611 32.9893 17.6518 33.002 18.4464 32.7986C20.2391 32.3472 22.1653 32.4235 23.5893 32.9956C23.9644 33.1482 24.1742 33.1355 24.3776 32.9321C24.5556 32.7541 24.5429 32.3981 24.3585 32.2073C23.869 31.7179 21.5677 31.3174 20.023 31.4509Z" fill="white"/>
</svg>
