<svg width="53" height="53" viewBox="0 0 53 53" fill="none" xmlns="http://www.w3.org/2000/svg">
<rect width="52.5159" height="52.5159" rx="26.258" fill="#6B4EFF" fill-opacity="0.1"/>
<path d="M15.6132 13.0723C14.3404 13.3455 13.3409 14.3574 13.0677 15.6426C12.9436 16.251 12.9436 32.3058 13.0677 32.9142C13.4092 34.5097 14.775 35.5714 16.5072 35.5776H16.9542V36.0246C16.9604 37.7567 18.022 39.1225 19.6175 39.464C19.9528 39.5323 21.1758 39.5509 26.366 39.5509C30.5939 39.5509 32.8227 39.5261 33.071 39.4826C33.2697 39.4454 33.6732 39.3026 33.965 39.166C34.4803 38.9177 34.53 38.8742 36.7029 36.7013C38.671 34.727 38.9317 34.4414 39.1428 34.0441C39.565 33.2246 39.5525 33.4543 39.5525 26.3892C39.5525 21.0935 39.5339 19.9574 39.4594 19.6035C39.1242 18.0141 37.7583 16.9587 36.0324 16.9525H35.5792V16.4993C35.573 14.7734 34.5176 13.4076 32.9282 13.0723C32.326 12.9419 16.1967 12.9419 15.6132 13.0723ZM32.7979 14.4568C33.3628 14.6492 33.9402 15.239 34.0892 15.7605C34.1202 15.8847 34.1699 16.2075 34.1885 16.4683L34.232 16.9525H27.1296C21.2814 16.9525 19.9528 16.9711 19.6175 17.0394C18.32 17.3188 17.3205 18.3184 17.0411 19.6159C16.9728 19.9512 16.9542 21.2797 16.9542 27.128V34.2304L16.4761 34.1869C16.2092 34.1683 15.8863 34.1186 15.7622 34.0876C15.2407 33.9386 14.6509 33.355 14.4584 32.7962C14.3529 32.492 14.3094 16.7787 14.4087 16.1268C14.5515 15.1894 15.1475 14.5623 16.0291 14.4133C16.2216 14.3823 19.8535 14.3636 24.4663 14.3698C30.7801 14.3761 32.6178 14.3947 32.7979 14.4568ZM36.7712 18.4301C37.3237 18.6164 37.8887 19.1813 38.075 19.7339C38.1308 19.9077 38.1557 21.4039 38.1743 26.0912L38.1929 32.2251H35.9889C33.4249 32.2251 33.3318 32.2437 32.7854 32.7838C32.2453 33.3301 32.2267 33.4233 32.2267 35.9873V38.1913L26.0991 38.1727C21.4055 38.154 19.9093 38.1292 19.7355 38.0733C19.183 37.8871 18.618 37.3221 18.4317 36.7696C18.3262 36.4654 18.2827 20.752 18.3821 20.1002C18.5249 19.1627 19.1209 18.5357 20.0025 18.3867C20.1949 18.3556 23.8268 18.337 28.4396 18.3432C34.7535 18.3494 36.5912 18.368 36.7712 18.4301ZM35.7034 35.6707L33.6236 37.7505L33.6049 35.9376C33.5925 34.6711 33.6112 34.0689 33.6608 33.9448C33.8036 33.6095 33.8905 33.5971 35.9207 33.5909H37.7832L35.7034 35.6707Z" fill="#6B4EFF"/>
<path d="M21.8214 21.8199C21.6476 21.9937 21.6104 22.0806 21.6104 22.2917C21.6104 22.5028 21.6476 22.5897 21.8214 22.7635L22.0325 22.9746H28.2533H34.474L34.6851 22.7635C34.859 22.5897 34.8962 22.5028 34.8962 22.2917C34.8962 22.0806 34.859 21.9937 34.6851 21.8199L34.474 21.6088H28.2533H22.0325L21.8214 21.8199Z" fill="#6B4EFF"/>
<path d="M21.8214 25.7932C21.6476 25.9671 21.6104 26.054 21.6104 26.2651C21.6104 26.4762 21.6476 26.5631 21.8214 26.7369L22.0325 26.948H28.2533H34.474L34.6851 26.7369C34.859 26.5631 34.8962 26.4762 34.8962 26.2651C34.8962 26.054 34.859 25.9671 34.6851 25.7932L34.474 25.5822H28.2533H22.0325L21.8214 25.7932Z" fill="#6B4EFF"/>
<path d="M21.8214 29.7665C21.6476 29.9403 21.6104 30.0273 21.6104 30.2383C21.6104 30.4494 21.6476 30.5363 21.8214 30.7102L22.0325 30.9213H26.2666H30.5007L30.7118 30.7102C30.8856 30.5363 30.9229 30.4494 30.9229 30.2383C30.9229 30.0273 30.8856 29.9403 30.7118 29.7665L30.5007 29.5554H26.2666H22.0325L21.8214 29.7665Z" fill="#6B4EFF"/>
<path d="M21.8214 33.7399C21.6476 33.9137 21.6104 34.0007 21.6104 34.2117C21.6104 34.4228 21.6476 34.5097 21.8214 34.6836L22.0325 34.8947H25.6147H29.1969L29.3708 34.7146C29.6936 34.398 29.6936 34.0255 29.3708 33.7089L29.1969 33.5288H25.6147H22.0325L21.8214 33.7399Z" fill="#6B4EFF"/>
</svg>
