<svg width="53" height="53" viewBox="0 0 53 53" fill="none" xmlns="http://www.w3.org/2000/svg">
<rect width="52.5159" height="52.5159" rx="26.258" fill="#6B4EFF" fill-opacity="0.1"/>
<path d="M17.562 16.8387L17.5619 16.839C17.5374 16.8839 17.5166 16.9225 17.5029 16.9651C17.4889 17.0089 17.483 17.0551 17.4844 17.117C17.4871 17.2375 17.518 17.4275 17.5777 17.7939C17.6091 17.9977 17.6365 18.1854 17.654 18.3233C17.6628 18.3924 17.6691 18.4484 17.6722 18.4875C17.6732 18.4998 17.6738 18.51 17.6741 18.5182C17.6693 18.52 17.6638 18.5221 17.6576 18.5245C17.6305 18.5347 17.5909 18.5492 17.5401 18.5675C17.4386 18.6041 17.293 18.6559 17.1139 18.7189C16.7558 18.8451 16.2644 19.0163 15.7258 19.2019C14.6488 19.5731 13.6336 19.929 13.4655 19.992L13.4654 19.992C13.2806 20.0616 13.1449 20.1481 13.056 20.2648C12.9664 20.3823 12.9281 20.5252 12.9281 20.6995C12.9281 20.7141 12.9323 20.735 12.9375 20.7571C12.9431 20.7809 12.9513 20.8116 12.9618 20.8483C12.9828 20.9217 13.0135 21.0212 13.0524 21.1427C13.1304 21.3857 13.2418 21.7182 13.3759 22.1099C13.6441 22.8934 14.0032 23.9145 14.367 24.932C14.7308 25.9496 15.0994 26.9639 15.3866 27.7336C15.5301 28.1184 15.6534 28.4424 15.7456 28.6751C15.7917 28.7914 15.8301 28.8853 15.8595 28.9528C15.8742 28.9865 15.8868 29.0141 15.8972 29.0347C15.9023 29.0451 15.9072 29.0541 15.9116 29.0616C15.9154 29.0681 15.9206 29.0763 15.9268 29.0828M17.562 16.8387L20.8247 36.5161L20.8246 36.5158C20.8235 36.5121 20.8224 36.5077 20.8212 36.5028C20.8188 36.493 20.8158 36.4797 20.8123 36.4633C20.8054 36.4303 20.796 36.3833 20.7844 36.3231C20.7612 36.2028 20.7289 36.0289 20.6886 35.8075C20.6079 35.3647 20.495 34.7311 20.358 33.9539C20.0841 32.3993 19.7141 30.2695 19.314 27.9397C18.914 25.61 18.5492 23.4895 18.2825 21.9501C18.1492 21.1804 18.0403 20.556 17.9639 20.1234C17.9256 19.9071 17.8955 19.7389 17.8745 19.6244C17.8639 19.5671 17.8557 19.5235 17.8499 19.4941C17.8498 19.4936 17.8497 19.4932 17.8496 19.4927C17.8249 19.4992 17.7901 19.5092 17.7459 19.5225C17.6508 19.5511 17.5142 19.5944 17.3464 19.6493C17.0107 19.759 16.5508 19.9145 16.049 20.0896L16.0487 20.0897C15.0393 20.4349 14.1401 20.7433 14.0515 20.7746L14.0515 20.7747L14.0485 20.7755C14.0055 20.7875 13.9665 20.8053 13.939 20.8225C13.9275 20.8297 13.919 20.8362 13.9133 20.8414L13.9148 20.8462C13.9194 20.8607 13.9264 20.8816 13.9356 20.9089C13.9541 20.9634 13.9813 21.0423 14.0164 21.143C14.0867 21.3444 14.1883 21.6325 14.3138 21.9862C14.5647 22.6934 14.9112 23.6621 15.2929 24.721L15.2929 24.721C15.7087 25.8795 16.0552 26.8615 16.2979 27.5678C16.4192 27.9209 16.5145 28.2053 16.5797 28.4083C16.6122 28.5099 16.6373 28.5914 16.6543 28.6512C16.6627 28.6811 16.6693 28.706 16.6738 28.7254C16.678 28.7432 16.6815 28.7609 16.6815 28.7739C16.6815 28.9029 16.6422 29.0163 16.562 29.0903L16.5614 29.0908C16.4773 29.1659 16.3539 29.2007 16.2374 29.2C16.1216 29.1993 16.0014 29.1633 15.9268 29.0828M17.562 16.8387C17.6218 16.73 17.7305 16.5985 17.8109 16.541M17.562 16.8387L17.8109 16.541M15.9268 29.0828C15.927 29.083 15.9271 29.0831 15.9272 29.0832L15.9605 29.051M15.9268 29.0828C15.9267 29.0827 15.9266 29.0826 15.9265 29.0824L15.9605 29.051M19.5717 39.2997C19.6228 39.3806 19.719 39.4519 19.8247 39.5027C19.9313 39.554 20.0545 39.5877 20.165 39.5877C20.1712 39.5877 20.1771 39.5866 20.1798 39.586C20.1835 39.5853 20.1877 39.5843 20.1921 39.5831C20.201 39.5808 20.2125 39.5776 20.2263 39.5734C20.254 39.5651 20.2926 39.5528 20.3413 39.5368C20.4388 39.5048 20.578 39.4578 20.754 39.3973C21.1062 39.2763 21.6068 39.1014 22.2186 38.8856C23.4425 38.4542 25.1121 37.8593 26.932 37.2056L26.932 37.2056L33.5486 34.8275L34.4754 34.6713L34.4755 34.6713C35.3918 34.5151 35.4251 34.5151 37.3439 34.5151C38.1595 34.5151 38.652 34.5125 38.9563 34.5014C39.1084 34.4958 39.2149 34.488 39.2919 34.4771C39.3683 34.4663 39.419 34.452 39.4574 34.4313M19.5717 39.2997L39.4578 34.4311C39.4577 34.4312 39.4575 34.4312 39.4574 34.4313M19.5717 39.2997C19.5717 39.2996 19.5716 39.2995 19.5715 39.2994L19.6107 39.2747L19.5717 39.2997ZM39.4574 34.4313C39.4756 34.4219 39.4929 34.4152 39.5111 34.4082L39.5126 34.4076C39.5298 34.4009 39.5493 34.3934 39.5678 34.3831C39.6097 34.3598 39.643 34.3245 39.669 34.2588C39.694 34.1959 39.7129 34.1032 39.7282 33.9623C39.7435 33.8207 39.7553 33.6272 39.7644 33.3604C39.7967 32.4199 39.7965 30.5572 39.796 26.819C39.7959 26.318 39.7958 25.7833 39.7958 25.2126V16.427V16.4078L39.7823 16.3942L39.5835 16.1955L39.5833 16.1953C39.2247 15.8419 38.4033 15.0585 37.6601 14.3571C37.2884 14.0063 36.9361 13.676 36.6709 13.43C36.5382 13.307 36.4272 13.205 36.3464 13.132C36.306 13.0956 36.2729 13.0662 36.2484 13.0451C36.2361 13.0345 36.2257 13.0258 36.2175 13.0192C36.2105 13.0135 36.2022 13.007 36.1952 13.0031M39.4574 34.4313L36.1952 13.0031M36.1952 13.0031C36.1873 12.9987 36.1786 12.996 36.1719 12.9943C36.1677 12.9932 36.1631 12.9922 36.1583 12.9913C36.1546 12.9906 36.1507 12.9899 36.1467 12.9893C36.128 12.9863 36.1036 12.9836 36.0733 12.9811C36.0127 12.9761 35.9257 12.9716 35.8089 12.9675C35.5751 12.9593 35.2193 12.9527 34.7101 12.9475C33.6914 12.9371 32.0569 12.9318 29.552 12.9292H29.552C26.3701 12.9292 24.7406 12.9305 23.8864 12.9443C23.4597 12.9511 23.2247 12.9611 23.0859 12.9758C23.0164 12.9832 22.9691 12.9919 22.933 13.0027C22.8959 13.0139 22.8721 13.0269 22.8498 13.0406M36.1952 13.0031L22.5445 14.5915C22.5445 15.5903 22.534 15.6897 22.4556 15.7158M22.8498 13.0406C22.8498 13.0406 22.8497 13.0406 22.8497 13.0406L22.8739 13.0801L22.85 13.0405C22.8499 13.0405 22.8499 13.0405 22.8498 13.0406ZM22.8498 13.0406C22.7731 13.0869 22.709 13.1313 22.6586 13.1928C22.6077 13.255 22.5735 13.3313 22.5502 13.4376C22.5044 13.6463 22.4981 13.9845 22.4981 14.5915C22.4981 15.0917 22.4955 15.364 22.4832 15.5146C22.4771 15.5908 22.4687 15.6304 22.4598 15.6516C22.4557 15.6613 22.4523 15.6652 22.4505 15.6669C22.449 15.6683 22.4467 15.6698 22.4418 15.6715M22.4418 15.6715C22.4422 15.6714 22.4423 15.6714 22.4422 15.6714L22.4556 15.7158M22.4418 15.6715C22.4416 15.6716 22.4414 15.6716 22.4411 15.6717L22.4375 15.6726L22.4251 15.6752C22.4147 15.6774 22.4007 15.6801 22.383 15.6835C22.3477 15.6902 22.2986 15.6992 22.2373 15.7102C22.1146 15.7323 21.9433 15.7623 21.7358 15.7983C21.3208 15.8702 20.7613 15.9656 20.1574 16.0676M22.4418 15.6715C22.4415 15.6716 22.4412 15.6717 22.4409 15.6718L22.4556 15.7158M22.4556 15.7158L20.1574 16.0676M14.0361 20.7309C13.9419 20.757 13.8635 20.8093 13.8635 20.8355C13.8635 20.8616 14.4858 22.6187 15.2493 24.7367C16.0808 27.0533 16.6351 28.664 16.6351 28.7739C16.6351 28.8941 16.5985 28.9935 16.5305 29.0562C16.3841 29.187 16.086 29.187 15.9605 29.051M14.0361 20.7309L15.9605 29.051M14.0361 20.7309C14.125 20.6995 15.0244 20.391 16.0337 20.0458L14.0361 20.7309ZM20.1574 16.0676C19.3807 16.1983 18.8219 16.2978 18.4453 16.3731C18.257 16.4107 18.1137 16.4425 18.0111 16.4692C17.9599 16.4826 17.9182 16.4948 17.8859 16.5061C17.8549 16.517 17.8285 16.5283 17.8109 16.541M20.1574 16.0676L17.8109 16.541M29.7337 34.5375L25.9358 35.1866L25.9358 35.1866C24.7488 35.3905 23.6678 35.5709 22.8816 35.6977C22.4885 35.7611 22.1692 35.8111 21.9473 35.8439C21.8363 35.8603 21.75 35.8724 21.6911 35.8797C21.6702 35.8823 21.6531 35.8842 21.6396 35.8855C21.6383 35.8791 21.6369 35.8719 21.6353 35.8638C21.628 35.8267 21.6178 35.7726 21.6049 35.7026C21.5792 35.5627 21.5428 35.3597 21.4974 35.1024C21.4064 34.5881 21.2791 33.8574 21.1277 32.9827C20.825 31.2333 20.4261 28.9079 20.0297 26.5841C19.6332 24.2602 19.2392 21.938 18.9463 20.1952C18.7998 19.3238 18.6786 18.5972 18.595 18.0877C18.5532 17.833 18.5209 17.6326 18.4994 17.4955C18.4887 17.427 18.4807 17.3745 18.4757 17.339C18.475 17.3335 18.4743 17.3285 18.4736 17.3239C18.4762 17.3233 18.479 17.3227 18.4819 17.322C18.5112 17.3155 18.5539 17.3067 18.6082 17.296C18.7168 17.2746 18.8708 17.2457 19.0555 17.2119C19.4249 17.1443 19.9165 17.057 20.4116 16.9708C20.9067 16.8845 21.4052 16.7992 21.7883 16.7355C21.9799 16.7036 22.1425 16.6772 22.2615 16.6587C22.321 16.6495 22.3693 16.6423 22.4048 16.6374C22.4221 16.635 22.4361 16.6332 22.4468 16.632C22.4513 16.6478 22.4563 16.6748 22.4609 16.7181C22.4712 16.8147 22.4789 16.9802 22.4844 17.2542C22.4955 17.8014 22.4981 18.7749 22.4981 20.4799V24.3811V24.4008L22.5124 24.4145L22.6425 24.5394C22.8112 24.7133 23.0732 24.7245 23.2585 24.5741C23.2586 24.5741 23.2587 24.574 23.2587 24.5739L23.3838 24.4749L23.4013 24.4611L23.4014 24.4387L23.4171 19.1256V19.1255L23.4274 13.8586H29.3167H35.2011L35.2163 15.1306L29.7337 34.5375ZM29.7337 34.5375L26.597 34.5151C26.43 34.514 26.2702 34.513 26.1174 34.512C24.4347 34.5013 23.5951 34.496 23.1608 34.4581C22.9257 34.4375 22.7988 34.407 22.7211 34.3532C22.6557 34.3078 22.6279 34.2463 22.5997 34.1838C22.5937 34.1705 22.5876 34.1571 22.5812 34.1438L22.5809 34.1431C22.56 34.0982 22.5463 34.0268 22.5358 33.8975C22.5251 33.7665 22.5174 33.57 22.5119 33.2701C22.5007 32.6702 22.4981 31.6525 22.4981 29.9087V25.8558V25.8354L22.5132 25.8216L22.633 25.7122C22.6331 25.7121 22.6332 25.712 22.6333 25.7119C22.8189 25.5381 23.1035 25.544 23.2831 25.7288L23.4133 25.8537L23.4275 25.8674V25.8872V29.7622V33.5857H31.1731H38.9187V25.4008V17.2102L37.4637 17.195L35.9576 17.1793L35.9453 17.1792L35.9347 17.173L35.6941 17.0318L35.6941 17.0318C35.5896 16.9704 35.5043 16.9161 35.4381 16.8441C35.3706 16.7707 35.3252 16.6817 35.2941 16.5544C35.233 16.3047 35.2241 15.8938 35.2163 15.1306L29.7337 34.5375ZM21.0974 36.769C20.9826 36.7093 20.8808 36.6253 20.8302 36.5302L18.7322 34.4217L18.7758 34.406C18.7758 34.406 18.7758 34.406 18.7758 34.406C19.1915 35.5591 19.5706 36.6089 19.8471 37.3717C19.9854 37.7531 20.0979 38.0627 20.1766 38.2776C20.2159 38.3851 20.2468 38.4688 20.2681 38.526C20.2755 38.5459 20.2818 38.5626 20.2868 38.5759C20.2994 38.5719 20.315 38.5669 20.3335 38.5607C20.3901 38.5421 20.4732 38.5138 20.5801 38.477C20.7937 38.4034 21.1014 38.2955 21.4805 38.1616C22.2387 37.8936 23.2819 37.521 24.427 37.1079C25.5723 36.6948 26.6129 36.3183 27.3659 36.0444C27.6832 35.929 27.9493 35.8319 28.1507 35.7579C27.995 35.7837 27.803 35.8159 27.5816 35.8532C26.9542 35.9591 26.0901 36.1068 25.141 36.2715L25.1409 36.2716C24.1917 36.4337 23.3051 36.5827 22.6415 36.6913C22.3097 36.7455 22.0335 36.7897 21.833 36.8203C21.7327 36.8356 21.6512 36.8475 21.5911 36.8556C21.5327 36.8635 21.4907 36.8684 21.4724 36.8684C21.3484 36.8684 21.213 36.8292 21.0974 36.769ZM16.4995 30.1308C16.4995 30.1308 16.4996 30.1308 16.4996 30.1307L16.5358 30.1597L16.4994 30.131C16.4994 30.1309 16.4995 30.1309 16.4995 30.1308ZM13.909 20.8271L13.909 20.8273L13.909 20.8271ZM17.6951 18.5098C17.6957 18.5095 17.6955 18.5096 17.6949 18.5099L17.6951 18.5098ZM37.7827 15.7808L37.7824 15.7805C37.4531 15.4617 36.9304 14.9651 36.622 14.6777L36.622 14.6776L36.1352 14.2224V15.1562C36.1352 15.5249 36.1391 15.7879 36.1489 15.9643C36.1537 16.0526 36.16 16.1179 36.1676 16.1634C36.1715 16.1862 36.1755 16.2028 36.1793 16.2142C36.1818 16.2215 36.1837 16.2252 36.1845 16.2267C36.186 16.2275 36.1898 16.2294 36.1973 16.2318C36.2091 16.2357 36.2263 16.2397 36.2501 16.2436C36.2974 16.2513 36.3657 16.2575 36.4587 16.2624C36.6442 16.2722 36.9229 16.2761 37.3176 16.2761C37.3176 16.2761 37.3177 16.2761 37.3178 16.2761L38.3003 16.2714L37.7827 15.7808Z" fill="#6B4EFF" stroke="#6B4EFF" stroke-width="0.0926751"/>
<path d="M25.3423 18.8065C25.2586 18.8849 25.2115 18.9947 25.2115 19.0941C25.2115 19.1935 25.2586 19.3033 25.3423 19.3817L25.4678 19.5125H31.215C36.9518 19.5125 36.9622 19.5125 37.1034 19.4026C37.2865 19.2614 37.2917 18.9529 37.1191 18.7908L36.9988 18.6757H31.2307H25.4678L25.3423 18.8065Z" fill="#6B4EFF"/>
<path d="M25.4363 21.4996C25.201 21.5938 25.1435 21.918 25.3213 22.1481L25.4258 22.2841H31.2306C36.9621 22.2841 37.0301 22.2841 37.1347 22.1795C37.2968 22.0174 37.2759 21.6931 37.1033 21.5572C36.9621 21.4473 36.9517 21.4473 31.2567 21.4526C28.1033 21.4526 25.4991 21.4735 25.4363 21.4996Z" fill="#6B4EFF"/>
<path d="M25.3161 24.3864C25.2586 24.4492 25.2115 24.5694 25.2115 24.6636C25.2115 24.7577 25.2586 24.878 25.3161 24.9407L25.426 25.0558H31.2255C36.9622 25.0558 37.0302 25.0558 37.1348 24.9512C37.1975 24.8884 37.2394 24.7786 37.2394 24.6636C37.2394 24.5485 37.1975 24.4387 37.1348 24.376C37.0302 24.2714 36.9622 24.2714 31.2255 24.2714H25.426L25.3161 24.3864Z" fill="#6B4EFF"/>
<path d="M25.3214 27.1789C25.1854 27.3515 25.1802 27.5711 25.3109 27.728L25.4103 27.8535L31.1889 27.8692L36.9623 27.8796L37.0982 27.7698C37.276 27.6339 37.2969 27.3096 37.1348 27.1475C37.0302 27.0429 36.9623 27.0429 31.2307 27.0429H25.426L25.3214 27.1789Z" fill="#6B4EFF"/>
<path d="M25.3423 29.9454C25.2586 30.0238 25.2115 30.1336 25.2115 30.233C25.2115 30.3324 25.2586 30.4422 25.3423 30.5206L25.4678 30.6514H31.2412H37.0145L37.1243 30.5311C37.2917 30.3533 37.2812 30.0657 37.1034 29.9245C36.9622 29.8146 36.9518 29.8146 31.215 29.8146H25.4678L25.3423 29.9454Z" fill="#6B4EFF"/>
</svg>
