<svg width="53" height="53" viewBox="0 0 53 53" fill="none" xmlns="http://www.w3.org/2000/svg">
<rect width="52.5159" height="52.5159" rx="26.258" fill="#6B4EFF" fill-opacity="0.1"/>
<path d="M25.0624 13.0416C23.1894 13.4017 21.7607 14.5663 21.1964 16.2112C20.9563 16.9255 20.8722 17.6819 20.9503 18.4083C21.1964 20.5754 22.5291 22.5564 24.294 23.4028C26.0349 24.2373 27.9438 23.8351 29.4266 22.3223C30.7593 20.9656 31.4796 19.0266 31.2815 17.3097C31.2095 16.6374 31.0894 16.2232 30.8253 15.6949C30.5612 15.1606 30.4471 14.9925 29.9969 14.5243C29.3786 13.87 28.5261 13.3777 27.5956 13.1316C26.9773 12.9695 25.6867 12.9215 25.0624 13.0416ZM27.3555 14.0621C28.4961 14.3682 29.4866 15.1606 29.9669 16.1631C30.267 16.7815 30.261 16.7995 29.6667 16.7995C28.9223 16.7935 28.4301 16.6074 27.8658 16.1031C27.5656 15.839 27.4636 15.7789 27.2835 15.7789C27.1034 15.7789 27.0254 15.827 26.7912 16.0851C26.1969 16.7454 25.3385 17.2557 24.5161 17.4358C23.9878 17.5559 23.1474 17.5258 22.493 17.3758C21.8987 17.2377 21.9047 17.2437 22.0128 16.8415C22.1689 16.2532 22.463 15.7309 22.9193 15.2447C23.5256 14.6023 24.2159 14.2182 25.1164 14.008C25.6026 13.9 26.8513 13.93 27.3555 14.0621ZM27.6017 17.1657C28.244 17.6099 28.9583 17.79 29.8528 17.748L30.3931 17.7239L30.3571 18.0541C30.243 19.0566 30.0149 19.795 29.5827 20.5274C28.5441 22.2863 26.8933 23.1627 25.3745 22.7725C23.7717 22.3523 22.331 20.6294 21.9768 18.7024C21.9348 18.4803 21.9108 18.2882 21.9288 18.2762C21.9408 18.2582 22.1149 18.2882 22.313 18.3363C22.9133 18.4863 24.0959 18.5163 24.6782 18.3963C25.5546 18.2162 26.365 17.808 27.0554 17.1957C27.1874 17.0816 27.3015 16.9856 27.3135 16.9796C27.3255 16.9796 27.4516 17.0636 27.6017 17.1657Z" fill="#6B4EFF"/>
<path d="M23.6635 24.4594C23.5495 24.4714 23.1172 24.5134 22.703 24.5494C20.1277 24.7716 18.1107 25.7561 17.4203 27.1248C17.1922 27.581 17.0421 28.1093 16.3458 30.8407C16.0096 32.1373 15.6614 33.458 15.5594 33.7641C15.2592 34.7066 15.3253 35.5471 15.7575 36.2314C15.8835 36.4295 17.0481 37.5761 17.8405 38.2784L18.0507 38.4645L16.742 38.4705C15.4333 38.4705 15.4333 38.4705 15.2892 38.6206C15.0911 38.8127 15.0851 39.1189 15.2772 39.299L15.4153 39.431H26.1968H36.9843L37.1044 39.275C37.2724 39.0588 37.2664 38.8007 37.0803 38.6206C36.9363 38.4705 36.9363 38.4705 35.6276 38.4645H34.3189L35.2854 37.5221C36.39 36.4475 36.5821 36.2014 36.7502 35.6611C36.9363 35.0548 36.9123 34.5325 36.6541 33.7161C36.5401 33.3439 36.1859 32.0533 35.8737 30.8467C35.2134 28.2894 34.9973 27.581 34.7692 27.1248C34.0788 25.7621 32.1638 24.8136 29.5465 24.5374C28.9462 24.4774 24.1017 24.4114 23.6635 24.4594ZM26.9352 25.3839H27.1873L26.8331 26.2663L26.4729 27.1488L26.659 28.3494C26.7611 29.0157 26.8451 29.574 26.8451 29.598C26.8451 29.628 26.551 29.646 26.1848 29.646C25.8186 29.646 25.5245 29.622 25.5245 29.592C25.5245 29.562 25.6085 29.0097 25.7045 28.3734C25.8066 27.7371 25.8726 27.1488 25.8546 27.0707C25.8366 26.9927 25.6745 26.5845 25.5004 26.1583L25.1823 25.3899L25.4884 25.3659C25.6565 25.3479 25.9927 25.3479 26.2388 25.3599C26.4849 25.3719 26.7971 25.3839 26.9352 25.3839ZM24.5159 26.3204L24.9001 27.2628L24.714 28.4394L24.534 29.616L21.4484 29.646L18.3628 29.6761L18.2548 29.8261C18.1407 29.9762 18.1467 30.0543 18.4649 33.8782C18.645 36.0213 18.789 37.7802 18.783 37.7922C18.777 37.7982 18.2788 37.348 17.6845 36.7897C16.796 35.9673 16.5739 35.7271 16.4718 35.481C16.2798 35.0368 16.2978 34.6106 16.5499 33.8182C16.6699 33.458 16.9641 32.3534 17.2162 31.3569C17.7685 29.1478 18.0446 28.1573 18.2127 27.7251C18.5729 26.8246 19.9356 25.9962 21.6225 25.654C22.0427 25.57 23.3934 25.4199 23.9697 25.3899C24.1197 25.3839 24.1498 25.4379 24.5159 26.3204ZM30.3449 25.624C31.9357 25.8941 33.2504 26.5725 33.8027 27.4069C34.0428 27.7611 34.2049 28.3074 34.9132 31.0267C35.2254 32.2334 35.5796 33.524 35.6936 33.8962C36.1078 35.2169 36.0118 35.469 34.541 36.8857L33.5626 37.8282L33.5986 37.474C33.7847 35.7211 34.2109 30.0302 34.1689 29.9162C34.1388 29.8381 34.0608 29.7421 33.9948 29.7121C33.9167 29.6701 32.8722 29.646 30.8552 29.646H27.8356L27.6495 28.4574L27.4694 27.2748L27.7576 26.5725C27.9137 26.1823 28.0878 25.7681 28.1358 25.648L28.2258 25.4259L28.9522 25.4679C29.3544 25.4919 29.9787 25.558 30.3449 25.624ZM33.1844 30.9487C33.1603 31.1408 33.0283 32.7676 32.8782 34.5686C32.7341 36.3695 32.5961 37.9843 32.5781 38.1524L32.542 38.4705H26.1848H19.8336L19.7975 38.1524C19.7795 37.9843 19.6415 36.3695 19.4914 34.5686C19.3473 32.7676 19.2092 31.1408 19.1852 30.9487L19.1492 30.6065H26.1848H33.2204L33.1844 30.9487Z" fill="#6B4EFF"/>
<path d="M25.9026 33.9382C25.6625 34.0402 25.5845 34.1903 25.5845 34.5265C25.5845 34.7546 25.6145 34.8206 25.7706 34.9527C25.8966 35.0607 26.0227 35.1088 26.1848 35.1088C26.3469 35.1088 26.4729 35.0607 26.599 34.9527C26.7551 34.8206 26.7851 34.7546 26.7851 34.5265C26.7851 34.1843 26.701 34.0402 26.4549 33.9322C26.2028 33.8301 26.1488 33.8301 25.9026 33.9382Z" fill="#6B4EFF"/>
<path d="M25.2244 35.7511C24.9123 35.8711 24.8102 36.3154 25.0443 36.5495C25.1524 36.6575 25.2424 36.6696 26.1849 36.6696C27.1274 36.6696 27.2175 36.6575 27.3255 36.5495C27.4936 36.3814 27.4876 36.0092 27.3195 35.8531C27.2054 35.7511 27.0854 35.7391 26.251 35.7271C25.7347 35.7211 25.2725 35.7331 25.2244 35.7511Z" fill="#6B4EFF"/>
</svg>
